# xmcd
#
# Track frame offsets: 
#        150
#        7590
#        20208
#        28536
#        42219
#        51019
#        65487
#        79333
#        90282
#        104445
#        124252
#        137223
#        148884
#        160821
#        174605
#        186876
#        202058
#        222138
#        236120
#        247722
#
# Disc length: 3505 seconds
#
# Revision: 0
# Processed by: cddbd v1.5.2PL0 Copyright (c) Steve Scherf et al.
# Submitted via: ExactAudioCopy v0.99pb4
#
DISCID=160daf14
DTITLE=Burl Ives - The Singing Wayfarer cd2
DYEAR=1952
DGENRE=Country
TTITLE0=The Wayfaring Stranger
TTITLE1=I Know an Old Lady (Who Swallowed a Fly)
TTITLE2=Git Along Little Dogies
TTITLE3=Wild Side Of Life
TTITLE4=Old Bangum
TTITLE5=The Golden Vanity
TTITLE6=Hear The Nightingale Sing
TTITLE7=The Wealthy Old Maid
TTITLE8=Great White Bird
TTITLE9=Barbara Allen
TTITLE10=The Woman And The Chivalrous Shark
TTITLE11=Let's Go A-Hunting
TTITLE12=Devilish Mary
TTITLE13=Molly Malone
TTITLE14=The Devil And The Farmer
TTITLE15=St. John's River
TTITLE16=Henry Martin
TTITLE17=Lolly-Too-Dum
TTITLE18=Frankie And Johnny
TTITLE19=Mr. Froggie Went a-Courtin'
EXTD=
EXTT0=
EXTT1=
EXTT2=
EXTT3=
EXTT4=
EXTT5=
EXTT6=
EXTT7=
EXTT8=
EXTT9=
EXTT10=
EXTT11=
EXTT12=
EXTT13=
EXTT14=
EXTT15=
EXTT16=
EXTT17=
EXTT18=
EXTT19=
PLAYORDER=
